<?xml version="1.0" encoding="UTF-8" standalone="no"?>
<svg
   xmlns:dc="http://purl.org/dc/elements/1.1/"
   xmlns:cc="http://creativecommons.org/ns#"
   xmlns:rdf="http://www.w3.org/1999/02/22-rdf-syntax-ns#"
   xmlns:svg="http://www.w3.org/2000/svg"
   xmlns="http://www.w3.org/2000/svg"
   xmlns:xlink="http://www.w3.org/1999/xlink"
   xmlns:sodipodi="http://sodipodi.sourceforge.net/DTD/sodipodi-0.dtd"
   xmlns:inkscape="http://www.inkscape.org/namespaces/inkscape"
   height="1024"
   viewBox="65 0 1024 1024"
   width="1024"
   version="1.1"
   id="svg4"
   sodipodi:docname="a.svg"
   inkscape:version="1.0.2-2 (e86c870879, 2021-01-15)">
  <metadata
     id="metadata10">
    <rdf:RDF>
      <cc:Work
         rdf:about="">
        <dc:format>image/svg+xml</dc:format>
        <dc:type
           rdf:resource="http://purl.org/dc/dcmitype/StillImage" />
        <dc:title />
      </cc:Work>
    </rdf:RDF>
  </metadata>
  <defs
     id="defs8">
    <linearGradient
       inkscape:collect="always"
       id="linearGradient1345">
      <stop
         style="stop-color:#1070aa;stop-opacity:1;"
         offset="0"
         id="stop1341" />
      <stop
         style="stop-color:#004397;stop-opacity:1;"
         offset="1"
         id="stop1343" />
    </linearGradient>
    <linearGradient
       inkscape:collect="always"
       xlink:href="#linearGradient1345"
       id="linearGradient1347"
       x1="-0.2023976"
       y1="-16.075918"
       x2="1024"
       y2="1008"
       gradientUnits="userSpaceOnUse"
       gradientTransform="translate(64.750001,15.999991)" />
  </defs>
  <sodipodi:namedview
     id="namedview6"
     pagecolor="#ffffff"
     bordercolor="#000000"
     borderopacity="0.25"
     inkscape:showpageshadow="2"
     inkscape:pageopacity="0.0"
     inkscape:pagecheckerboard="0"
     inkscape:deskcolor="#d1d1d1"
     showgrid="false"
     inkscape:zoom="0.58398438"
     inkscape:cx="512.00001"
     inkscape:cy="512"
     inkscape:window-width="1440"
     inkscape:window-height="830"
     inkscape:window-x="-3"
     inkscape:window-y="-3"
     inkscape:window-maximized="1"
     inkscape:current-layer="layer1"
     inkscape:document-rotation="0"
     inkscape:snap-object-midpoints="false" />
  <g
     inkscape:groupmode="layer"
     id="layer1"
     inkscape:label="background"
     style="display:inline">
    <path
       d="m 208.42857,1024 c -19.048,0 -37.23771,-3.9051 -54.57143,-11.7143 -17.33371,-7.8091 -32.57143,-18.28572 -45.71428,-31.42862 C 95,967.71428 84.52377,952.47658 76.71429,935.14284 68.9048,917.80912 65,899.61941 65,880.57141 V 143.42855 c 0,-19.048 3.9048,-37.2377 11.71429,-54.57142 C 84.52377,71.52342 95,56.2857 108.14286,43.14285 121.28571,29.999989 136.52343,19.523874 153.85714,11.714274 171.19086,3.9047889 189.38057,1.0325e-4 208.42857,-1.075e-5 H 945.5714 c 19.048,1.14e-4 37.2377,3.90479965 54.5715,11.71428475 17.3337,7.8096 32.5714,18.285715 45.7142,31.428576 13.1429,13.14285 23.6195,28.38057 31.4286,45.71428 7.8092,17.33372 11.7143,35.52342 11.7143,54.57142 v 737.14286 c 0,19.048 -3.9051,37.23771 -11.7143,54.57143 -7.8091,17.33374 -18.2857,32.57144 -31.4286,45.71424 -13.1428,13.1429 -28.3805,23.61952 -45.7142,31.42862 C 982.8091,1020.0949 964.6194,1024 945.5714,1024 Z"
       fill="#000000"
       fill-opacity="1"
       id="path12"
       style="stroke-width:1.14285;fill-opacity:1;fill:#f2f2f2;opacity:1" />
  </g>
  <g
     inkscape:groupmode="layer"
     id="layer2"
     inkscape:label="icon"
     style="display:inline">
    <path
       d="m 416.75,848.49999 h -224 c -8.667,0 -16.917,-1.667 -24.75,-5 -7.8333,-3.333 -14.5833,-7.917 -20.25,-13.75 -5.6667,-5.833 -10.1667,-12.667 -13.5,-20.5 -3.3333,-7.833 -5,-16.25 -5,-25.25 0,-4.333 0.3333,-8.5 1,-12.5 0.6667,-4 1.8333,-8 3.5,-12 l 59,-142 v -231 c 0,-2.333 0.083,-4.667 0.25,-7 0.167,-2.333 0.25,-4.667 0.25,-7 1.333,-34 7.083,-66.5 17.25,-97.5 10.167,-31 23.833,-59.667 41,-86 17.16701,-26.333 37.5,-50.167 61,-71.5 23.5,-21.333299 49.25,-39.499999 77.25,-54.499999 28,-15 57.75,-26.5833 89.25,-34.75 31.5,-8.16663 64.083,-12.25 97.75,-12.25 32.333,0 63.833,3.75 94.5,11.25 30.66701,7.5 59.833,18.5 87.5,33 27.66701,14.5 53.41701,32.25 77.25,53.249999 23.833,21 44.75,44.833 62.75,71.5 17,25 31,52.5 42,82.5 11,30 17.333,60.333 19,91 0.333,4.667 0.583,9.5 0.75,14.5 0.16701,5 0.25,9.833 0.25,14.5 v 230 l 59,142 c 3.333,7.667 5,16 5,25 0,8.667 -1.75,16.833 -5.25,24.5 -3.5,7.667 -8.167,14.417 -14,20.25 -5.83299,5.833 -12.667,10.5 -20.5,14 -7.83299,3.5 -15.917,5.25 -24.25,5.25 h -224 c -1,22.333 -5.58299,43.167 -13.75,62.5 -8.167,19.333 -19.33299,36.167 -33.5,50.5 -14.167,14.333 -30.83299,25.667 -50,34 C 620.333,1003.833 599.41701,1008 576.75,1008 c -22.667,0 -43.58299,-4.167 -62.75,-12.50001 -19.167,-8.333 -35.83299,-19.667 -50,-34 -14.16699,-14.333 -25.33299,-31.167 -33.5,-50.5 -8.16699,-19.333 -12.75,-40.167 -13.75,-62.5 z m 544,-64 c -1.33299,-3.333 -3.917,-9.333 -7.75,-18 -3.83299,-8.667 -8.08299,-18.583 -12.75,-29.75 -4.667,-11.167 -9.58299,-22.917 -14.75,-35.25 -5.167,-12.333 -9.83299,-23.833 -14,-34.5 -4.167,-10.667 -7.667,-19.917 -10.5,-27.75 -2.83299,-7.833 -4.25,-12.917 -4.25,-15.25 v -236 c 0,-28.667 -3.83299,-56.25 -11.5,-82.75 -7.667,-26.5 -18.5,-51.25 -32.5,-74.25 -14,-23 -31.08299,-43.917 -51.25,-62.75 -20.167,-18.833 -42.75,-35.083 -67.75,-48.75 -48.667,-26.333299 -101,-39.499899 -157,-39.499999 -26.667,1e-4 -52.83299,3.0834 -78.5,9.25 -25.667,6.1667 -50,15.166699 -73,26.999999 -23,11.833 -44.417,26.417 -64.25,43.75 -19.83299,17.333 -37.417,37 -52.75,59 -14,20.667 -25.5,43.167 -34.5,67.5 -9,24.333 -14.333,49 -16,74 -0.333,4.667 -0.583,9.167 -0.75,13.5 -0.16699,4.333 -0.25,8.833 -0.25,13.5 v 236.5 c 0,2.333 -1.417,7.417 -4.25,15.25 -2.833,7.833 -6.333,17.083 -10.5,27.75 -4.167,10.667 -8.833,22.167 -14,34.5 -5.167,12.333 -10.083,24.083 -14.75,35.25 -4.667,11.167 -8.917,21.083 -12.75,29.75 -3.833,8.667 -6.417,14.667 -7.75,18 z m -384,159.5 c 13.333,0 25.75,-2.5 37.25,-7.5 11.5,-5 21.5,-11.833 30,-20.5 8.5,-8.667 15.25,-18.75 20.25,-30.25 5,-11.5 7.833,-23.917 8.5,-37.25 h -192 c 0.33301,13.333 3,25.75 8,37.25 5,11.5 11.75,21.583 20.25,30.25 8.5,8.667 18.583,15.5 30.25,20.5 11.66701,5 24.16701,7.5 37.5,7.5 z"
       fill="#000000"
       fill-opacity="1"
       id="path2"
       style="fill:url(#linearGradient1347);fill-opacity:1" />
  </g>
</svg>
