<?xml version="1.0" encoding="UTF-8" standalone="no"?>
<!-- Exported by Character Map UWP -->

<svg
   height="100%"
   viewBox="65 0 896 992"
   width="100%"
   version="1.1"
   id="svg4"
   sodipodi:docname="a.svg"
   inkscape:version="1.2.2 (732a01da63, 2022-12-09)"
   xmlns:inkscape="http://www.inkscape.org/namespaces/inkscape"
   xmlns:sodipodi="http://sodipodi.sourceforge.net/DTD/sodipodi-0.dtd"
   xmlns:xlink="http://www.w3.org/1999/xlink"
   xmlns="http://www.w3.org/2000/svg"
   xmlns:svg="http://www.w3.org/2000/svg">
  <defs
     id="defs8">
    <linearGradient
       inkscape:collect="always"
       id="linearGradient1345">
      <stop
         style="stop-color:#1070aa;stop-opacity:1;"
         offset="0"
         id="stop1341" />
      <stop
         style="stop-color:#004397;stop-opacity:1;"
         offset="1"
         id="stop1343" />
    </linearGradient>
    <linearGradient
       inkscape:collect="always"
       xlink:href="#linearGradient1345"
       id="linearGradient1347"
       x1="64.5"
       y1="0"
       x2="960"
       y2="992"
       gradientUnits="userSpaceOnUse" />
  </defs>
  <sodipodi:namedview
     id="namedview6"
     pagecolor="#ffffff"
     bordercolor="#000000"
     borderopacity="0.25"
     inkscape:showpageshadow="2"
     inkscape:pageopacity="0.0"
     inkscape:pagecheckerboard="0"
     inkscape:deskcolor="#d1d1d1"
     showgrid="false"
     inkscape:zoom="0.33644597"
     inkscape:cx="399.76701"
     inkscape:cy="780.21443"
     inkscape:window-width="1440"
     inkscape:window-height="830"
     inkscape:window-x="-6"
     inkscape:window-y="-6"
     inkscape:window-maximized="1"
     inkscape:current-layer="svg4" />
  <path
     d="M352,832.5L128,832.5C119.333,832.5 111.083,830.833 103.25,827.5C95.4167,824.167 88.6667,819.583 83,813.75C77.3333,807.917 72.8333,801.083 69.5,793.25C66.1667,785.417 64.5,777 64.5,768C64.5,763.667 64.8333,759.5 65.5,755.5C66.1667,751.5 67.3333,747.5 69,743.5L128,601.5L128,370.5C128,368.167 128.083,365.833 128.25,363.5C128.417,361.167 128.5,358.833 128.5,356.5C129.833,322.5 135.583,290 145.75,259C155.917,228 169.583,199.333 186.75,173C203.917,146.667 224.25,122.833 247.75,101.5C271.25,80.1667 297,62 325,47C353,32 382.75,20.4167 414.25,12.25C445.75,4.08337 478.333,0 512,0C544.333,0 575.833,3.75 606.5,11.25C637.167,18.75 666.333,29.75 694,44.25C721.667,58.75 747.417,76.5 771.25,97.5C795.083,118.5 816,142.333 834,169C851,194 865,221.5 876,251.5C887,281.5 893.333,311.833 895,342.5C895.333,347.167 895.583,352 895.75,357C895.917,362 896,366.833 896,371.5L896,601.5L955,743.5C958.333,751.167 960,759.5 960,768.5C960,777.167 958.25,785.333 954.75,793C951.25,800.667 946.583,807.417 940.75,813.25C934.917,819.083 928.083,823.75 920.25,827.25C912.417,830.75 904.333,832.5 896,832.5L672,832.5C671,854.833 666.417,875.667 658.25,895C650.083,914.333 638.917,931.167 624.75,945.5C610.583,959.833 593.917,971.167 574.75,979.5C555.583,987.833 534.667,992 512,992C489.333,992 468.417,987.833 449.25,979.5C430.083,971.167 413.417,959.833 399.25,945.5C385.083,931.167 373.917,914.333 365.75,895C357.583,875.667 353,854.833 352,832.5ZM896,768.5C894.667,765.167 892.083,759.167 888.25,750.5C884.417,741.833 880.167,731.917 875.5,720.75C870.833,709.583 865.917,697.833 860.75,685.5C855.583,673.167 850.917,661.667 846.75,651C842.583,640.333 839.083,631.083 836.25,623.25C833.417,615.417 832,610.333 832,608L832,372C832,343.333 828.167,315.75 820.5,289.25C812.833,262.75 802,238 788,215C774,192 756.917,171.083 736.75,152.25C716.583,133.417 694,117.167 669,103.5C620.333,77.1667 568,64.0001 512,64C485.333,64.0001 459.167,67.0834 433.5,73.25C407.833,79.4167 383.5,88.4167 360.5,100.25C337.5,112.083 316.083,126.667 296.25,144C276.417,161.333 258.833,181 243.5,203C229.5,223.667 218,246.167 209,270.5C200,294.833 194.667,319.5 193,344.5C192.667,349.167 192.417,353.667 192.25,358C192.083,362.333 192,366.833 192,371.5L192,608C192,610.333 190.583,615.417 187.75,623.25C184.917,631.083 181.417,640.333 177.25,651C173.083,661.667 168.417,673.167 163.25,685.5C158.083,697.833 153.167,709.583 148.5,720.75C143.833,731.917 139.583,741.833 135.75,750.5C131.917,759.167 129.333,765.167 128,768.5ZM512,928C525.333,928 537.75,925.5 549.25,920.5C560.75,915.5 570.75,908.667 579.25,900C587.75,891.333 594.5,881.25 599.5,869.75C604.5,858.25 607.333,845.833 608,832.5L416,832.5C416.333,845.833 419,858.25 424,869.75C429,881.25 435.75,891.333 444.25,900C452.75,908.667 462.833,915.5 474.5,920.5C486.167,925.5 498.667,928 512,928Z"
     fill="#000000"
     fill-opacity="1"
     id="path2"
     style="fill-opacity:1;fill:url(#linearGradient1347)" />
</svg>
